<?xml version="1.0" encoding="UTF-8" standalone="no"?><!DOCTYPE svg PUBLIC "-//W3C//DTD SVG 1.1//EN" "http://www.w3.org/Graphics/SVG/1.1/DTD/svg11.dtd"><svg width="100%" height="100%" viewBox="0 0 250 100" version="1.1" xmlns="http://www.w3.org/2000/svg" xmlns:xlink="http://www.w3.org/1999/xlink" xml:space="preserve" xmlns:serif="http://www.serif.com/" style="fill-rule:evenodd;clip-rule:evenodd;stroke-linejoin:round;stroke-miterlimit:2;"><g><g><path d="M134.337,28.6c-13.775,0 -24.717,10.942 -24.717,24.717c0,13.775 10.942,24.033 24.717,24.033c5.568,0 10.258,-1.368 14.458,-4.885c0,2.833 2.736,4.885 4.69,4.885c2.833,0 4.884,-2.052 4.884,-4.885l0,-19.148c0,-13.775 -10.257,-24.717 -24.032,-24.717Zm0,39.176c-8.207,0 -15.143,-6.253 -15.143,-14.459c0,-8.206 6.936,-15.143 15.143,-15.143c8.206,0 14.458,6.937 14.458,15.143c0,8.206 -6.252,14.459 -14.458,14.459Z" style="fill:#333;fill-opacity:0.9;fill-rule:nonzero;"/><path d="M188.752,28.503c-13.482,0 -24.521,10.941 -24.521,24.521l0,19.636c0,2.638 2.149,4.885 4.885,4.885c2.638,0 4.787,-2.247 4.787,-4.885l0,-19.636c0,-8.206 6.643,-14.85 14.849,-14.85c2.736,0 4.885,-2.247 4.885,-4.884c0,-2.638 -2.149,-4.787 -4.885,-4.787Z" style="fill:#333;fill-opacity:0.9;fill-rule:nonzero;"/><path d="M217.767,28.6c-13.775,0 -24.716,10.942 -24.716,24.717c0,13.775 10.941,24.033 24.716,24.033c5.569,0 10.258,-1.368 14.459,-4.885c0,2.833 2.735,4.885 4.689,4.885c2.833,0 4.885,-2.052 4.885,-4.885l0,-19.148c0,-13.775 -10.258,-24.717 -24.033,-24.717Zm0,39.176c-8.206,0 -15.142,-6.253 -15.142,-14.459c0,-8.206 6.936,-15.143 15.142,-15.143c8.207,0 14.459,6.937 14.459,15.143c0,8.206 -6.252,14.459 -14.459,14.459Z" style="fill:#333;fill-opacity:0.9;fill-rule:nonzero;"/></g><path d="M88.086,48.418l0.023,0c-0.937,-20.131 -16.567,-36.433 -36.286,-38.231c-0.069,0 -0.114,0 -0.183,-0.024c-0.251,-0.023 -0.502,-0.046 -0.777,-0.07c-0.114,0 -0.228,-0.023 -0.32,-0.023c-0.205,-0.023 -0.434,-0.023 -0.639,-0.023c-0.137,0 -0.275,0 -0.435,-0.024c-0.182,0 -0.365,0 -0.548,-0.023l-1.439,0c-0.206,0 -0.412,0 -0.617,0.023c-0.115,0 -0.206,0 -0.32,0.024c-0.274,0 -0.549,0.023 -0.823,0.046l-0.091,0c-20.245,1.285 -36.423,17.82 -37.383,38.325l0.023,0c-0.046,0.677 -0.068,1.331 -0.068,2.009c-0.206,18.473 11.607,34.167 27.945,39.445c1.759,0.561 3.565,-0.794 3.565,-2.686l0,-9.972c0,-0.303 -0.183,-0.56 -0.457,-0.654c-10.283,-3.736 -17.64,-13.756 -17.709,-25.526c0,-1.191 0.069,-2.382 0.206,-3.527c0.068,-0.56 0.548,-1.004 1.096,-1.027c15.333,-0.467 31.145,-4.975 32.287,-17.726c0.023,-0.257 0.366,-0.351 0.503,-0.117c1.714,3.059 8.272,13.802 18.051,16.698c0.412,0.117 0.732,0.491 0.8,0.934c0.251,1.495 0.389,3.037 0.389,4.601c0,11.818 -7.381,21.907 -17.686,25.667c-0.274,0.093 -0.457,0.374 -0.457,0.654l0,9.972c0,1.892 1.782,3.246 3.541,2.686c16.178,-5.231 27.923,-20.692 27.923,-38.979c-0.046,-0.794 -0.069,-1.635 -0.114,-2.452Z" style="fill:#ff344a;"/></g></svg>